<svg width="16" height="16" viewBox="0 0 16 16" fill="none" xmlns="http://www.w3.org/2000/svg">
<path d="M0 8C0 3.58172 3.58172 0 8 0V0C12.4183 0 16 3.58172 16 8V8C16 12.4183 12.4183 16 8 16V16C3.58172 16 0 12.4183 0 8V8Z" fill="#279AF1"/>
<path d="M5.56836 11V3.89062H8.00488C8.80892 3.89062 9.4209 4.05176 9.84082 4.37402C10.2607 4.69629 10.4707 5.17643 10.4707 5.81445C10.4707 6.13997 10.3828 6.43294 10.207 6.69336C10.0312 6.95378 9.77409 7.1556 9.43555 7.29883C9.81966 7.40299 10.1159 7.59993 10.3242 7.88965C10.5358 8.17611 10.6416 8.52116 10.6416 8.9248C10.6416 9.59212 10.4268 10.1048 9.99707 10.4629C9.57064 10.821 8.95866 11 8.16113 11H5.56836ZM6.80371 7.79199V10.0137H8.17578C8.56315 10.0137 8.86589 9.91764 9.08398 9.72559C9.30208 9.53353 9.41113 9.2666 9.41113 8.9248C9.41113 8.18587 9.03353 7.80827 8.27832 7.79199H6.80371ZM6.80371 6.88379H8.01465C8.39876 6.88379 8.69824 6.79753 8.91309 6.625C9.13118 6.44922 9.24023 6.20182 9.24023 5.88281C9.24023 5.53125 9.13932 5.27734 8.9375 5.12109C8.73893 4.96484 8.42806 4.88672 8.00488 4.88672H6.80371V6.88379Z" fill="white"/>
</svg>
