<svg width="784" height="363" viewBox="0 0 784 363" fill="none" xmlns="http://www.w3.org/2000/svg">
<path d="M705.709 362.69C745.983 362.69 778.632 359.394 778.632 355.328C778.632 351.262 745.983 347.965 705.709 347.965C665.434 347.965 632.785 351.262 632.785 355.328C632.785 359.394 665.434 362.69 705.709 362.69Z" fill="#AAB1B5"/>
<path d="M708.528 96.71H705.099L702.965 106.002L709.366 102.071L708.528 96.71Z" fill="#C64241"/>
<path d="M713.024 96.71H708.528L706.318 98.5685L709.366 102.071H713.024V96.71Z" fill="#EB4245"/>
<path d="M687.268 203.217L701.365 342.89H719.425L724.225 203.217H687.268Z" fill="#3A4C51"/>
<path d="M715.233 203.217H712.566V342.89H715.233V203.217Z" fill="#506469"/>
<path opacity="0.6" d="M724.225 203.217H687.268L723.844 214.868L724.225 203.217Z" fill="#354649"/>
<path d="M728.035 92.707H714.7V100.141H728.035V92.707Z" fill="#FED797"/>
<path d="M729.788 96.71H713.023V102H729.788V96.71Z" fill="white"/>
<path d="M720.263 100.141C696.869 100.141 687.496 130.52 679.648 147.533C673.476 160.9 680.791 181.343 683.991 192.709C684.982 196.14 685.439 199.714 685.439 203.216H726.054L727.959 201.072C729.94 198.856 731.083 195.997 731.083 193.066V100.141H720.263Z" fill="#3A4C51"/>
<path d="M699.737 221.392L709.677 224.14L710.711 220.849L700.771 218.101L699.737 221.392Z" fill="#E2B375"/>
<path d="M688.334 36.5947H728.035V92.7071H707.537C696.945 92.7071 688.334 84.6298 688.334 74.694V36.5947Z" fill="#FED797"/>
<path d="M728.035 61.8278C731.907 61.8278 735.046 58.8835 735.046 55.2515C735.046 51.6196 731.907 48.6753 728.035 48.6753C724.164 48.6753 721.025 51.6196 721.025 55.2515C721.025 58.8835 724.164 61.8278 728.035 61.8278Z" fill="#FED797"/>
<path d="M728.035 58.3251C729.845 58.3251 731.312 56.949 731.312 55.2514C731.312 53.5539 729.845 52.1777 728.035 52.1777C726.226 52.1777 724.759 53.5539 724.759 55.2514C724.759 56.949 726.226 58.3251 728.035 58.3251Z" fill="#EFC383"/>
<path d="M716.453 47.4598H728.035V36.5947H707.614V39.168C707.614 43.7428 711.576 47.4598 716.453 47.4598Z" fill="#6D6E71"/>
<path d="M708.757 50.1762H699.384C698.546 50.1762 697.936 49.5329 697.936 48.8181C697.936 48.0318 698.622 47.46 699.384 47.46H708.757C709.595 47.46 710.204 48.1033 710.204 48.8181C710.204 49.6044 709.595 50.1762 708.757 50.1762Z" fill="#413E42"/>
<path d="M694.431 50.1762H685.058C684.22 50.1762 683.61 49.5329 683.61 48.8181C683.61 48.0318 684.296 47.46 685.058 47.46H694.431C695.269 47.46 695.878 48.1033 695.878 48.8181C695.878 49.6044 695.269 50.1762 694.431 50.1762Z" fill="#413E42"/>
<path d="M700.603 55.9662C701.823 55.9662 702.813 55.0381 702.813 53.8933C702.813 52.7484 701.823 51.8203 700.603 51.8203C699.382 51.8203 698.393 52.7484 698.393 53.8933C698.393 55.0381 699.382 55.9662 700.603 55.9662Z" fill="#413E42"/>
<path d="M693.06 55.9662C694.28 55.9662 695.269 55.0381 695.269 53.8933C695.269 52.7484 694.28 51.8203 693.06 51.8203C691.839 51.8203 690.85 52.7484 690.85 53.8933C690.85 55.0381 691.839 55.9662 693.06 55.9662Z" fill="#413E42"/>
<path d="M689.325 68.1178C691.64 68.1178 693.516 66.3576 693.516 64.1863C693.516 62.015 691.64 60.2549 689.325 60.2549C687.011 60.2549 685.134 62.015 685.134 64.1863C685.134 66.3576 687.011 68.1178 689.325 68.1178Z" fill="#FED797"/>
<path d="M721.711 25.6582C721.711 25.6582 718.891 22.9419 717.672 22.513C709.366 19.5823 700.527 19.2964 691.383 21.0119C687.725 21.7267 685.134 24.6574 685.134 28.16V33.664C685.134 35.3081 686.506 36.5947 688.258 36.5947H728.035V22.513L725.063 25.6582C724.149 26.5874 722.625 26.5874 721.711 25.6582Z" fill="#413E42"/>
<path d="M725.216 203.217C728.188 179.199 728.111 149.677 724.835 115.796C724.53 112.579 721.482 110.149 717.977 110.434C714.548 110.72 711.957 113.58 712.262 116.868C715.462 150.535 715.538 179.628 712.49 203.217H725.216Z" fill="#354649"/>
<path d="M712.338 221.301L698.85 217.87C707.918 186.919 709.747 160.9 709.899 116.511C709.899 112.937 713.023 110.006 716.91 110.006C720.796 110.006 723.92 112.937 723.92 116.582C723.692 162.044 721.786 188.921 712.338 221.301Z" fill="#42575C"/>
<path d="M709.899 214.797L714.319 215.797L713.709 218.228L709.289 217.227C708.604 217.084 708.146 216.369 708.299 215.726C708.451 215.083 709.137 214.654 709.899 214.797Z" fill="#3A4C51"/>
<path d="M709.671 216.727C710.049 216.727 710.356 216.439 710.356 216.083C710.356 215.728 710.049 215.44 709.671 215.44C709.292 215.44 708.985 215.728 708.985 216.083C708.985 216.439 709.292 216.727 709.671 216.727Z" fill="#354649"/>
<path d="M718.663 342.89L719.272 355.256H711.729L710.662 353.112L708.147 355.256H677.134V350.109C677.134 348.179 678.81 346.607 680.868 346.607H683.839C684.525 346.607 685.211 346.535 685.897 346.392L702.508 342.818H718.663V342.89Z" fill="#2D3D3F"/>
<path d="M702.508 342.89L718.891 346.822L718.662 342.89H702.508Z" fill="#29393A"/>
<path d="M769.334 21.9411C768.115 16.2941 726.433 22.5129 724.605 23.0133C722.7 23.4422 708.831 23.2992 708.831 23.2992C708.831 23.2992 695.039 21.7267 693.21 21.0119C691.381 20.2971 650.919 8.9316 648.937 14.3641C646.956 19.7967 648.937 25.1577 651.071 27.874C653.357 30.7332 663.187 36.0943 674.617 39.7398C686.047 43.3853 707.155 45.3868 707.155 45.3868C707.155 45.3868 728.415 46.0301 740.226 43.8857C752.037 41.7413 762.552 37.5954 765.219 35.0936C767.81 32.6632 770.554 27.5881 769.334 21.9411Z" fill="#2D3C3F"/>
<path d="M715.234 2.92739L708.376 7.21624L702.737 2.14111C699.689 -1.00405 696.107 -0.575163 694.812 2.71295L681.02 31.7342L706.699 33.2353L732.379 34.7364L723.082 4.35701C722.168 0.997406 718.967 0.49704 715.234 2.92739Z" fill="#354649"/>
<path d="M648.862 14.3641C648.862 14.2927 648.939 14.2927 648.939 14.2212C649.624 15.2219 650.31 16.1512 651.148 17.0804C652.52 18.51 654.044 19.3678 655.949 20.2256C659.911 22.0126 664.102 23.8711 668.217 25.2292C677.514 28.3029 686.81 30.4473 696.564 31.6625C700.374 32.1629 704.184 32.6632 708.07 32.6632C711.88 33.1636 715.69 33.1636 719.576 33.1636C729.482 33.0921 739.008 32.2343 748.609 30.3044C752.876 29.4466 757.372 28.1599 761.487 26.8733C763.468 26.3014 765.068 25.6581 766.668 24.3714C767.583 23.5852 768.497 22.7274 769.259 21.8696C769.259 21.9411 769.259 21.9411 769.335 22.0126C770.555 27.6596 767.811 32.7347 765.221 35.1651C762.554 37.6669 752.038 41.8128 740.227 43.9572C728.416 46.1016 707.156 45.4583 707.156 45.4583C707.156 45.4583 685.972 43.4568 674.618 39.8113C663.188 36.1658 653.358 30.8047 651.072 27.9455C648.862 25.1577 646.881 19.7967 648.862 14.3641Z" fill="#2D3C3F"/>
<path d="M769.565 26.0157C769.565 26.0157 769.565 25.9442 769.565 26.0157C769.565 25.8013 769.565 25.7298 769.565 25.5868V25.5154C769.565 25.3724 769.565 25.2294 769.565 25.158V25.0865C769.565 24.9435 769.565 24.8005 769.565 24.7291V24.6576C769.565 24.5861 769.565 24.5861 769.565 24.5146L761.183 32.8779L748.762 32.5919L738.322 39.1682L726.283 35.4512L714.929 40.1689L703.804 35.0938L687.192 37.6671L672.79 29.3753L663.646 31.2338L657.855 24.1572L649.549 25.4439C649.701 25.8013 649.93 26.1587 650.158 26.5161L657.321 25.3724L663.189 32.449L672.638 30.519L687.04 38.7393L703.727 36.166L715.005 41.3126L726.435 36.5949L738.627 40.3119L749.219 33.5927L761.792 33.8786L769.565 26.0872V26.0157Z" fill="#58595B"/>
<path d="M657.778 24.0858L663.569 31.1624L672.713 29.3038L687.115 37.5956L703.727 35.0223L714.852 40.0975L726.206 35.3797L738.246 39.0967L748.685 32.5205L761.106 32.8064L769.488 24.4432C769.488 23.6569 769.412 22.8706 769.259 22.0843C768.878 22.4417 768.345 22.9421 767.888 23.2995C767.735 23.4424 767.507 23.5854 767.354 23.7283C767.126 23.9428 766.821 24.1572 766.592 24.3717C764.992 25.6583 763.392 26.3017 761.411 26.8735C757.22 28.0887 752.8 29.4468 748.533 30.3046C738.932 32.2346 729.407 33.0924 719.501 33.1638C715.614 33.1638 711.804 33.1638 707.994 32.6635C704.184 32.6635 700.374 32.1631 696.488 31.6627C686.734 30.3761 677.362 28.3031 668.141 25.2295C664.027 23.8713 659.759 21.9413 655.873 20.2258C653.968 19.368 652.444 18.5817 651.072 17.0806C650.844 16.8662 650.615 16.6518 650.463 16.3658C650.31 16.2229 650.082 16.0084 649.929 15.8655C649.548 15.5081 649.091 14.9362 648.786 14.5073C647.339 18.5817 648.101 22.5847 649.472 25.4439L657.778 24.0858Z" fill="#A7A9AC"/>
<path d="M769.564 26.1587L761.792 33.9501L749.219 33.6641L738.627 40.3833L726.435 36.6663L715.005 41.3841L703.727 36.2374L687.039 38.8108L672.637 30.5905L663.189 32.5204L657.321 25.4438L650.158 26.5875C650.082 26.4446 650.006 26.2301 649.854 26.0872C650.158 26.659 650.539 27.2309 650.92 27.7312C654.426 30.7334 663.722 35.3797 674.238 38.8108C685.439 42.4563 704.032 44.3148 707.309 44.6007C710.585 44.7437 729.331 45.1725 740.913 43.0281C751.81 40.9552 761.64 37.5241 765.526 34.9508C767.355 33.0208 769.183 29.8757 769.564 26.1587Z" fill="#808285"/>
<path d="M649.168 13.6494C649.777 14.5787 650.463 15.4364 651.225 16.2227C652.597 17.6523 654.121 18.5101 656.026 19.3679C659.988 21.1549 664.179 23.0134 668.294 24.3715C677.59 27.4452 686.887 29.5896 696.64 30.8048C700.451 31.3052 704.261 31.8055 708.147 31.8055C711.957 32.3059 715.767 32.3059 719.653 32.3059C729.559 32.2344 739.084 31.3767 748.685 29.4467C752.953 28.5889 757.448 27.3023 761.563 26.0156C763.545 25.4438 765.145 24.8004 766.745 23.5138C767.583 22.799 768.421 22.2271 769.183 21.3694C769.26 21.5123 769.26 21.8697 769.336 22.0842C768.498 23.0134 767.659 23.5138 766.669 24.3001C765.069 25.5867 763.468 26.23 761.487 26.8019C757.296 28.0171 752.876 29.3752 748.609 30.233C739.008 32.163 729.483 33.0207 719.577 33.0922C715.691 33.0922 711.881 33.0922 708.071 32.5918C704.261 32.5918 700.451 32.0915 696.564 31.5911C686.811 30.3045 677.438 28.2315 668.218 25.1578C664.103 23.7997 659.836 21.8697 655.949 20.1542C654.044 19.2964 652.52 18.5101 651.149 17.009C650.311 16.1513 649.625 15.1505 648.939 14.1498C649.015 14.0068 649.091 13.8639 649.168 13.6494Z" fill="#2D3C3F"/>
<path d="M687.115 68.9044L686.506 72.0495C686.277 73.2647 687.268 74.4798 688.639 74.4798H694.278C696.412 80.3412 700.374 82.2712 705.556 81.5564C702.203 76.9102 699.764 72.4069 699.079 67.9751H688.411C687.725 67.9751 687.268 68.404 687.115 68.9044Z" fill="#413E42"/>
<path d="M756.078 214.082C755.087 214.368 754.02 214.225 753.182 213.653L752.877 213.51C752.191 213.081 751.201 213.224 750.667 213.867C750.286 214.368 750.286 215.011 750.591 215.511L751.353 216.655C751.81 217.298 751.506 218.227 750.744 218.585C746.171 220.801 741.523 221.659 736.57 220.658C735.884 220.515 735.427 219.943 735.427 219.3V219.228C735.427 218.513 735.58 217.799 735.961 217.084L736.037 217.012C736.342 216.44 736.113 215.726 735.427 215.44C734.741 215.082 733.903 215.44 733.675 216.155L733.598 216.298C733.294 217.227 732.227 217.727 731.312 217.37C717.444 213.081 710.662 218.942 710.662 230.808C710.662 242.674 717.444 248.607 731.312 244.246C732.303 243.961 733.294 244.461 733.598 245.319L733.675 245.462C733.903 246.176 734.741 246.462 735.427 246.176C736.037 245.891 736.342 245.176 736.037 244.604L735.961 244.532C735.656 243.889 735.427 243.174 735.427 242.388V242.317C735.427 241.673 735.884 241.101 736.57 240.958C741.599 239.958 746.171 240.887 750.744 243.031C751.506 243.389 751.81 244.318 751.353 244.961L750.591 246.105C750.21 246.605 750.286 247.249 750.667 247.749C751.201 248.392 752.115 248.607 752.877 248.106L753.182 247.964C754.02 247.392 755.087 247.249 756.078 247.535C773.604 252.252 783.434 247.892 783.434 230.665C783.434 213.438 773.527 209.364 756.078 214.082Z" fill="#F37434"/>
<path d="M748.152 234.168C748.152 234.168 747.847 233.739 747.238 233.739C746.476 233.739 745.485 234.168 745.333 234.954C745.257 235.597 745.714 236.384 746.171 236.812C746.4 237.098 746.781 237.313 747.085 237.456C748 237.885 749.067 237.813 750.057 237.599C750.514 237.527 750.972 237.384 751.429 237.241C752.343 237.027 753.181 236.741 754.096 236.598C755.01 236.455 755.849 236.384 756.763 236.384C757.677 236.384 758.82 236.527 759.735 237.241C760.649 237.956 760.954 239.1 760.801 240.029C760.573 241.101 759.735 242.102 758.515 242.031C758.287 242.031 758.058 241.959 757.83 241.888C757.22 241.745 756.763 241.387 756.306 241.03C756.23 240.958 756.23 240.887 756.306 240.887L756.382 240.815C756.839 240.887 757.373 240.887 757.83 240.887C758.058 240.887 758.211 240.815 758.439 240.744C758.744 240.529 758.82 240.172 758.82 239.815C758.82 239.457 758.592 239.171 758.287 239.028C757.982 238.814 757.449 238.671 756.687 238.599C755.925 238.528 755.086 238.528 754.248 238.457C753.41 238.457 752.496 238.385 751.581 238.314C750.667 238.242 749.752 238.314 748.838 238.314C747.924 238.314 747.009 238.314 746.095 238.099C745.18 237.885 744.19 237.384 743.656 236.527C743.428 236.098 743.275 235.669 743.275 235.168C743.275 235.097 743.275 234.882 743.275 234.811C743.275 234.74 743.275 234.597 743.352 234.454C743.428 234.168 743.504 233.953 743.656 233.739C744.342 232.881 745.104 232.667 745.79 232.595C746.476 232.524 747.085 232.595 747.543 232.881C748 233.167 748.228 233.453 748.305 233.739C748.381 233.953 748.457 234.168 748.381 234.239C748.381 234.311 748.305 234.311 748.228 234.311C748.228 234.239 748.228 234.239 748.152 234.168Z" fill="#2D3C3F"/>
<path d="M783.357 230.951C783.357 220.944 780.004 215.297 773.832 213.224C769.717 218.299 769.564 223.374 773.451 228.521H765.526C764.84 228.521 764.307 229.021 764.307 229.664V232.309C764.307 232.952 764.84 233.453 765.526 233.453H783.281C783.357 232.595 783.357 231.809 783.357 230.951Z" fill="#2D3C3F"/>
<path d="M665.703 234.239H683.763C684.144 234.239 684.449 233.953 684.449 233.596V228.378C684.449 228.02 684.144 227.734 683.763 227.734H665.703C665.322 227.734 665.018 228.02 665.018 228.378V233.596C665.018 233.882 665.322 234.239 665.703 234.239Z" fill="#F37434"/>
<path d="M748.152 227.735C748.152 227.735 747.847 228.164 747.238 228.164C746.476 228.164 745.485 227.735 745.333 226.948C745.257 226.305 745.714 225.519 746.171 225.09C746.4 224.804 746.781 224.589 747.085 224.447C748 224.018 749.067 224.089 750.057 224.304C750.514 224.375 750.972 224.518 751.429 224.661C752.343 224.875 753.181 225.161 754.096 225.304C755.01 225.447 755.849 225.519 756.763 225.519C757.677 225.519 758.82 225.376 759.735 224.661C760.649 223.946 760.954 222.802 760.801 221.873C760.573 220.801 759.735 219.8 758.515 219.872C758.287 219.872 758.058 219.943 757.83 220.015C757.22 220.158 756.763 220.515 756.306 220.872C756.23 220.944 756.23 221.015 756.306 221.015L756.382 221.087C756.839 221.015 757.373 221.015 757.83 221.015C758.058 221.015 758.211 221.087 758.439 221.158C758.744 221.373 758.82 221.73 758.82 222.088C758.82 222.445 758.592 222.731 758.287 222.874C757.982 223.088 757.449 223.231 756.687 223.303C755.925 223.374 755.086 223.374 754.248 223.446C753.41 223.446 752.496 223.517 751.581 223.589C750.667 223.66 749.752 223.589 748.838 223.589C747.924 223.589 747.009 223.589 746.095 223.803C745.18 224.018 744.19 224.518 743.656 225.376C743.428 225.805 743.275 226.234 743.275 226.734C743.275 226.805 743.275 227.02 743.275 227.091C743.275 227.163 743.275 227.306 743.352 227.449C743.428 227.735 743.504 227.949 743.656 228.164C744.342 229.021 745.104 229.236 745.79 229.307C746.476 229.379 747.085 229.307 747.543 229.021C748 228.735 748.228 228.449 748.305 228.164C748.381 227.949 748.457 227.735 748.381 227.663C748.381 227.592 748.305 227.592 748.228 227.592C748.228 227.663 748.228 227.663 748.152 227.735Z" fill="#2D3C3F"/>
<path d="M670.275 230.951C670.275 231.666 670.884 232.238 671.646 232.238L733.217 233.381C733.902 233.381 734.436 232.881 734.436 232.238V229.593C734.436 228.95 733.902 228.449 733.217 228.449L671.646 229.593C670.884 229.664 670.275 230.236 670.275 230.951Z" fill="#2D3C3F"/>
<path d="M698.698 221.087L709.899 224.16C710.585 224.375 711.042 224.732 710.966 224.947L707.232 236.812C707.156 237.098 706.546 237.17 705.861 236.955L694.659 233.882C693.973 233.667 693.516 233.31 693.592 233.095L697.326 221.23C697.402 220.944 698.012 220.872 698.698 221.087Z" fill="#EFC383"/>
<path d="M696.412 220.444L707.614 223.517C708.299 223.732 708.757 223.946 708.757 224.161L706.623 231.023C706.547 231.166 706.013 231.166 705.327 230.951L694.126 227.878C693.44 227.663 692.983 227.449 692.983 227.234L695.117 220.372C695.193 220.229 695.726 220.229 696.412 220.444Z" fill="#EFC383"/>
<path d="M146.702 362.69C186.976 362.69 219.626 359.394 219.626 355.328C219.626 351.262 186.976 347.965 146.702 347.965C106.427 347.965 73.7778 351.262 73.7778 355.328C73.7778 359.394 106.427 362.69 146.702 362.69Z" fill="#AAB1B5"/>
<path d="M149.444 96.71H146.092L143.882 106.002L150.359 102.071L149.444 96.71Z" fill="#C64241"/>
<path d="M153.94 96.71H149.445L147.311 98.5685L150.359 102.071H153.94V96.71Z" fill="#EB4245"/>
<path d="M128.261 203.217L142.282 342.89H160.341L165.142 203.217H128.261Z" fill="#3A4C51"/>
<path d="M156.227 203.217H153.56V342.89H156.227V203.217Z" fill="#506469"/>
<path opacity="0.6" d="M165.142 203.217H128.261L164.761 214.868L165.142 203.217Z" fill="#354649"/>
<path d="M169.028 92.707H155.693V100.141H169.028V92.707Z" fill="#FED797"/>
<path d="M170.705 96.71H153.94V102H170.705V96.71Z" fill="white"/>
<path d="M161.256 100.141C137.862 100.141 126.432 117.94 126.432 139.813V197.569V203.216H167.047L168.952 201.072C170.933 198.856 172.076 195.997 172.076 193.066V100.141H161.256Z" fill="#3A4C51"/>
<path d="M140.723 221.392L150.663 224.139L151.697 220.848L141.756 218.101L140.723 221.392Z" fill="#E2B375"/>
<path d="M129.328 36.5947H169.029V92.7071H148.531C137.939 92.7071 129.328 84.6298 129.328 74.694V36.5947Z" fill="#FED797"/>
<path d="M169.029 61.8278C172.9 61.8278 176.039 58.8835 176.039 55.2515C176.039 51.6196 172.9 48.6753 169.029 48.6753C165.157 48.6753 162.018 51.6196 162.018 55.2515C162.018 58.8835 165.157 61.8278 169.029 61.8278Z" fill="#FED797"/>
<path d="M169.029 58.3251C170.838 58.3251 172.305 56.949 172.305 55.2514C172.305 53.5539 170.838 52.1777 169.029 52.1777C167.219 52.1777 165.752 53.5539 165.752 55.2514C165.752 56.949 167.219 58.3251 169.029 58.3251Z" fill="#EFC383"/>
<path d="M157.446 47.4598H169.028V36.5947H148.606V39.168C148.606 43.7428 152.569 47.4598 157.446 47.4598Z" fill="#6D6E71"/>
<path d="M149.75 50.1762H140.377C139.539 50.1762 138.93 49.5329 138.93 48.8181C138.93 48.0318 139.615 47.46 140.377 47.46H149.75C150.588 47.46 151.198 48.1033 151.198 48.8181C151.198 49.6044 150.512 50.1762 149.75 50.1762Z" fill="#413E42"/>
<path d="M135.424 50.1762H126.051C125.213 50.1762 124.604 49.5329 124.604 48.8181C124.604 48.0318 125.289 47.46 126.051 47.46H135.424C136.262 47.46 136.872 48.1033 136.872 48.8181C136.872 49.6044 136.262 50.1762 135.424 50.1762Z" fill="#413E42"/>
<path d="M141.52 55.9662C142.741 55.9662 143.73 55.0381 143.73 53.8933C143.73 52.7484 142.741 51.8203 141.52 51.8203C140.3 51.8203 139.311 52.7484 139.311 53.8933C139.311 55.0381 140.3 55.9662 141.52 55.9662Z" fill="#413E42"/>
<path d="M134.053 55.9662C135.273 55.9662 136.262 55.0381 136.262 53.8933C136.262 52.7484 135.273 51.8203 134.053 51.8203C132.832 51.8203 131.843 52.7484 131.843 53.8933C131.843 55.0381 132.832 55.9662 134.053 55.9662Z" fill="#413E42"/>
<path d="M130.318 68.1178C132.633 68.1178 134.509 66.3576 134.509 64.1863C134.509 62.015 132.633 60.2549 130.318 60.2549C128.003 60.2549 126.127 62.015 126.127 64.1863C126.127 66.3576 128.003 68.1178 130.318 68.1178Z" fill="#FED797"/>
<path d="M162.628 25.6582C162.628 25.6582 159.809 22.9419 158.589 22.513C150.284 19.5823 141.444 19.2964 132.3 21.0119C128.643 21.7267 126.052 24.6574 126.052 28.16V33.664C126.052 35.3081 127.423 36.5947 129.176 36.5947H168.953V22.513L165.981 25.6582C165.066 26.5874 163.542 26.5874 162.628 25.6582Z" fill="#413E42"/>
<path d="M166.209 203.217C169.181 179.199 169.105 149.677 165.828 115.796C165.523 112.579 162.475 110.149 158.97 110.434C155.541 110.72 152.95 113.58 153.255 116.868C156.455 150.535 156.531 179.628 153.483 203.217H166.209Z" fill="#354649"/>
<path d="M153.255 221.301L139.768 217.87C148.835 186.919 150.664 160.9 150.817 116.511C150.817 112.937 153.941 110.006 157.827 110.006C161.713 110.006 164.838 112.937 164.838 116.582C164.685 162.044 162.704 188.921 153.255 221.301Z" fill="#42575C"/>
<path d="M150.816 214.797L155.235 215.797L154.626 218.228L150.206 217.227C149.52 217.084 149.063 216.369 149.215 215.726C149.444 215.083 150.13 214.654 150.816 214.797Z" fill="#3A4C51"/>
<path d="M150.664 216.727C151.043 216.727 151.35 216.439 151.35 216.083C151.35 215.728 151.043 215.44 150.664 215.44C150.285 215.44 149.978 215.728 149.978 216.083C149.978 216.439 150.285 216.727 150.664 216.727Z" fill="#354649"/>
<path d="M159.656 342.89L160.265 355.256H152.722L151.655 353.112L149.14 355.256H118.126V350.109C118.126 348.179 119.803 346.607 121.86 346.607H124.832C125.518 346.607 126.204 346.535 126.89 346.392L143.501 342.818H159.656V342.89Z" fill="#2D3D3F"/>
<path d="M143.425 342.89L159.808 346.822L159.655 342.89H143.425Z" fill="#29393A"/>
<path d="M139.615 221.087L150.817 224.16C151.502 224.375 151.96 224.732 151.883 224.947L148.15 236.812C148.073 237.098 147.464 237.17 146.778 236.955L135.577 233.882C134.891 233.667 134.434 233.31 134.51 233.095L138.244 221.23C138.396 220.944 139.006 220.872 139.615 221.087Z" fill="#EFC383"/>
<path d="M137.329 220.444L148.53 223.517C149.216 223.732 149.673 223.946 149.673 224.161L147.54 231.023C147.464 231.166 146.93 231.166 146.244 230.951L135.043 227.878C134.357 227.663 133.9 227.449 133.9 227.234L136.034 220.372C136.11 220.229 136.719 220.229 137.329 220.444Z" fill="#EFC383"/>
<path d="M210.329 21.9411C209.11 16.2941 167.428 22.5129 165.599 23.0133C163.694 23.4422 149.826 23.2992 149.826 23.2992C149.826 23.2992 136.033 21.7267 134.205 21.0119C132.376 20.2971 91.9133 8.9316 89.9321 14.3641C87.9509 19.7967 89.9321 25.1577 92.0657 27.874C94.3517 30.7332 104.182 36.0943 115.612 39.7398C127.042 43.3853 148.149 45.3868 148.149 45.3868C148.149 45.3868 169.409 46.0301 181.22 43.8857C193.031 41.7413 203.547 37.5954 206.214 35.0936C208.805 32.6632 211.472 27.5881 210.329 21.9411Z" fill="#2D3C3F"/>
<path d="M156.226 2.92739L149.368 7.21624L143.729 2.14111C140.681 -1.00405 137.1 -0.575163 135.805 2.71295L122.012 31.7342L147.692 33.2353L173.371 34.7364L163.999 4.35701C163.084 0.997406 159.96 0.49704 156.226 2.92739Z" fill="#354649"/>
<path d="M89.8561 14.3641C89.8561 14.2927 89.9323 14.2927 89.9323 14.2212C90.6181 15.2219 91.3039 16.1512 92.1421 17.0804C93.5137 18.51 95.0377 19.3678 96.9428 20.2256C100.905 22.0126 105.096 23.8711 109.211 25.2292C118.508 28.3029 127.804 30.4473 137.558 31.6625C141.368 32.1629 145.178 32.6632 149.064 32.6632C152.874 33.1636 156.684 33.1636 160.57 33.1636C170.476 33.0921 180.001 32.2343 189.603 30.3044C193.87 29.4466 198.366 28.1599 202.48 26.8733C204.462 26.3014 206.062 25.6581 207.662 24.3714C208.576 23.5852 209.491 22.7274 210.253 21.8696C210.253 21.9411 210.253 21.9411 210.329 22.0126C211.548 27.6596 208.805 32.7347 206.214 35.1651C203.547 37.6669 193.032 41.8128 181.221 43.9572C169.409 46.1016 148.149 45.4583 148.149 45.4583C148.149 45.4583 126.966 43.4568 115.612 39.8113C104.182 36.1658 94.3519 30.8047 92.0659 27.9455C89.7799 25.1577 87.8749 19.7967 89.8561 14.3641Z" fill="#2D3C3F"/>
<path d="M210.557 26.0157C210.557 26.0157 210.557 25.9442 210.557 26.0157C210.557 25.8013 210.557 25.7298 210.557 25.5868V25.5154C210.557 25.3724 210.557 25.2294 210.557 25.158V25.0865C210.557 24.9435 210.557 24.8005 210.557 24.7291V24.6576C210.557 24.5861 210.557 24.5861 210.557 24.5146L202.175 32.8779L189.755 32.5919L179.315 39.1682L167.275 35.4512L155.922 40.1689L144.796 35.0938L128.185 37.6671L113.783 29.3753L104.639 31.2338L98.8474 24.1572L90.5415 25.4439C90.6939 25.8013 90.9225 26.1587 91.1511 26.5161L98.3139 25.3724L104.181 32.449L113.63 30.519L128.032 38.7393L144.72 36.166L155.998 41.3126L167.428 36.5949L179.62 40.3119L190.212 33.5927L202.785 33.8786L210.557 26.0872V26.0157Z" fill="#58595B"/>
<path d="M98.7712 24.0858L104.562 31.1624L113.707 29.3038L128.108 37.5956L144.72 35.0223L155.845 40.0975L167.199 35.3797L179.239 39.0967L189.678 32.5205L202.099 32.8064L210.481 24.4432C210.481 23.6569 210.405 22.8706 210.253 22.0843C209.872 22.4417 209.338 22.9421 208.881 23.2995C208.729 23.4424 208.5 23.5854 208.348 23.7283C208.119 23.9428 207.814 24.1572 207.586 24.3717C205.985 25.6583 204.385 26.3017 202.404 26.8735C198.213 28.0887 193.793 29.4468 189.526 30.3046C179.925 32.2346 170.4 33.0924 160.494 33.1638C156.607 33.1638 152.797 33.1638 148.987 32.6635C145.177 32.6635 141.367 32.1631 137.481 31.6627C127.727 30.3761 118.355 28.3031 109.134 25.2295C105.02 23.8713 100.752 21.9413 96.8662 20.2258C94.9612 19.368 93.4372 18.5817 92.0656 17.0806C91.837 16.8662 91.6084 16.6518 91.456 16.3658C91.3036 16.2229 91.075 16.0084 90.9226 15.8655C90.5416 15.5081 90.0844 14.9362 89.7796 14.5073C88.3317 18.5817 89.0937 22.5847 90.4654 25.4439L98.7712 24.0858Z" fill="#A7A9AC"/>
<path d="M210.481 26.1589L202.709 33.9503L190.135 33.6643L179.544 40.3835L167.351 36.6665L155.921 41.3843L144.644 36.2376L127.956 38.811L113.554 30.5192L104.105 32.4492L98.2377 25.3726L91.0748 26.5163C90.9986 26.3733 90.9224 26.1589 90.77 26.0159C91.0748 26.5877 91.4558 27.1596 91.8368 27.66C95.342 30.6621 104.639 35.3084 115.154 38.7395C126.356 42.385 144.949 44.2435 148.225 44.5294C151.502 44.6724 170.247 45.1013 181.83 42.9568C192.726 40.8839 202.556 37.4528 206.442 34.8795C208.271 33.021 210.1 29.8759 210.481 26.1589Z" fill="#808285"/>
<path d="M90.0841 13.6494C90.6937 14.5787 91.3795 15.4364 92.1415 16.2227C93.5131 17.6523 95.0371 18.5101 96.9421 19.3679C100.905 21.1549 105.096 23.0134 109.21 24.3715C118.507 27.4452 127.803 29.5896 137.557 30.8048C141.367 31.3052 145.177 31.8055 149.063 31.8055C152.873 32.3059 156.683 32.3059 160.57 32.3059C170.476 32.2344 180.001 31.3767 189.602 29.4467C193.869 28.5889 198.365 27.3023 202.48 26.0156C204.461 25.4438 206.061 24.8004 207.661 23.5138C208.5 22.799 209.338 22.2271 210.1 21.3694C210.176 21.5123 210.176 21.8697 210.252 22.0842C209.414 23.0134 208.576 23.5138 207.585 24.3001C205.985 25.5867 204.385 26.23 202.404 26.8019C198.213 28.0171 193.793 29.3752 189.526 30.233C179.924 32.163 170.399 33.0207 160.493 33.0922C156.607 33.0922 152.797 33.0922 148.987 32.5918C145.177 32.5918 141.367 32.0915 137.481 31.5911C127.727 30.3045 118.354 28.2315 109.134 25.1578C105.019 23.7997 100.752 21.8697 96.8659 20.1542C94.9609 19.2964 93.4369 18.5101 92.0653 17.009C91.2271 16.1513 90.5413 15.1505 89.8555 14.1498C89.9317 14.0068 90.0079 13.8639 90.0841 13.6494Z" fill="#2D3C3F"/>
<path d="M128.032 68.9044L127.423 72.0495C127.194 73.2647 128.185 74.4798 129.556 74.4798H135.195C137.329 80.3412 141.291 82.2712 146.473 81.5564C143.12 76.9102 140.681 72.4069 139.996 67.9751H129.328C128.718 67.9751 128.185 68.404 128.032 68.9044Z" fill="#413E42"/>
<path d="M113.707 289.708C112.03 281.56 108.373 273.983 103.115 267.692C97.3236 260.616 94.2756 251.967 94.2756 243.032V228.092C94.2756 227.091 94.1993 226.091 94.1231 225.09C98.9238 222.588 102.2 217.799 102.2 212.223V151.679C102.2 143.602 95.1899 136.954 86.5031 136.954H75.6064V130.092C75.6064 127.733 76.216 125.517 77.4352 123.444L83.6075 113.079C84.8267 111.078 85.4363 108.791 85.4363 106.432V90.7774H89.9321V71.5491H85.5125V69.5477C85.5125 62.0422 79.0355 55.9663 71.0344 55.9663H46.8788C38.8778 55.9663 32.4007 62.0422 32.4007 69.5477C32.4007 81.8424 32.4007 99.1407 32.4007 106.503C32.4007 108.862 33.0103 111.078 34.2296 113.151L42.2306 126.589C42.2306 126.589 42.1544 174.339 42.1544 191.065C42.1544 194.353 40.3256 197.427 37.3538 199.214C27.2953 205.361 20.5897 216.012 20.5897 228.164V243.103C20.5897 252.038 17.5416 260.687 11.7504 267.764C4.51136 276.556 0.244141 287.564 0.244141 299.573C0.244141 321.803 19.4467 339.817 43.145 339.817H55.7943L58.6137 354.899C58.7661 355.542 59.6805 355.542 59.8329 354.899L62.6523 339.817H71.7964C92.2181 339.817 109.363 326.378 113.63 308.436V309.008H118.126V289.78H113.707V289.708ZM79.7975 200.643C77.2066 198.785 75.6826 195.926 75.6826 192.924V143.959H86.5793C91.0751 143.959 94.809 147.39 94.809 151.679V212.223C94.809 214.296 93.9708 216.155 92.5229 217.513C90.1607 210.794 85.6649 204.932 79.7975 200.643Z" fill="#2D3D3F"/>
<path d="M126.355 173.409H105.629V185.632H126.355V173.409Z" fill="#42575C"/>
<path d="M98.7717 172.694V186.419C98.7717 187.062 98.2383 187.562 97.5525 187.562H91.4565C90.7707 187.562 90.2373 187.062 90.2373 186.419V172.694C90.2373 172.051 90.7707 171.55 91.4565 171.55H97.5525C98.2383 171.479 98.7717 172.051 98.7717 172.694Z" fill="#FED797"/>
<path d="M109.44 182.058V185.99H107.001V182.058C107.001 181.415 107.535 180.915 108.221 180.915C108.906 180.915 109.44 181.415 109.44 182.058Z" fill="#3A4C51"/>
<path d="M105.629 174.553H102.2V184.417H105.629V174.553Z" fill="#EFC383"/>
<path d="M103.114 175.625V171.336C103.114 171.05 102.886 170.836 102.581 170.836H100.828C100.524 170.836 100.295 171.05 100.295 171.336V175.625C100.295 175.911 100.524 176.126 100.828 176.126H102.581C102.886 176.126 103.114 175.911 103.114 175.625Z" fill="#FED797"/>
<path d="M347.566 133.237C335.221 133.237 326.153 138.24 320.362 146.175C318.838 148.248 317.162 152.036 316.019 154.895C315.104 157.111 313.656 159.041 311.751 160.614C288.358 179.413 290.568 217.37 312.742 236.312H353.357L355.262 234.168C357.243 231.952 358.386 229.093 358.386 226.162V133.237H347.566Z" fill="#3A4C51"/>
<path d="M333.011 362.69C373.286 362.69 405.935 359.394 405.935 355.328C405.935 351.262 373.286 347.965 333.011 347.965C292.737 347.965 260.087 351.262 260.087 355.328C260.087 359.394 292.737 362.69 333.011 362.69Z" fill="#AAB1B5"/>
<path d="M335.831 129.877H332.402L330.268 139.17L336.669 135.167L335.831 129.877Z" fill="#C64241"/>
<path d="M340.327 129.877H335.831L333.621 131.664L336.669 135.167H340.327V129.877Z" fill="#EB4245"/>
<path d="M314.571 203.145L328.668 342.89H346.728L351.529 203.145H314.571Z" fill="#3A4C51"/>
<path d="M342.537 203.145H339.87V342.818H342.537V203.145Z" fill="#506469"/>
<path opacity="0.6" d="M351.529 236.312H314.571L351.148 247.963L351.529 236.312Z" fill="#354649"/>
<path d="M355.339 125.803H342.003V133.237H355.339V125.803Z" fill="#FED797"/>
<path d="M357.091 129.877H340.327V135.167H357.091V129.877Z" fill="white"/>
<path d="M327.033 254.5L336.973 257.247L338.007 253.956L328.066 251.209L327.033 254.5Z" fill="#E2B375"/>
<path d="M315.638 69.6904H355.338V125.803H334.84C324.248 125.803 315.638 117.726 315.638 107.79V69.6904Z" fill="#FED797"/>
<path d="M355.339 94.9234C359.21 94.9234 362.349 91.9792 362.349 88.3472C362.349 84.7153 359.21 81.771 355.339 81.771C351.467 81.771 348.328 84.7153 348.328 88.3472C348.328 91.9792 351.467 94.9234 355.339 94.9234Z" fill="#FED797"/>
<path d="M355.339 91.4208C357.148 91.4208 358.615 90.0446 358.615 88.3471C358.615 86.6496 357.148 85.2734 355.339 85.2734C353.529 85.2734 352.062 86.6496 352.062 88.3471C352.062 90.0446 353.529 91.4208 355.339 91.4208Z" fill="#EFC383"/>
<path d="M343.756 80.5555H355.339V69.6904H334.917V72.2637C334.917 76.8385 338.879 80.5555 343.756 80.5555Z" fill="#6D6E71"/>
<path d="M336.06 83.2719H326.687C325.849 83.2719 325.239 82.6286 325.239 81.9138C325.239 81.1275 325.925 80.5557 326.687 80.5557H336.06C336.898 80.5557 337.508 81.199 337.508 81.9138C337.508 82.7001 336.898 83.2719 336.06 83.2719Z" fill="#413E42"/>
<path d="M321.734 83.2719H312.361C311.523 83.2719 310.913 82.6286 310.913 81.9138C310.913 81.1275 311.599 80.5557 312.361 80.5557H321.734C322.572 80.5557 323.181 81.199 323.181 81.9138C323.258 82.7001 322.572 83.2719 321.734 83.2719Z" fill="#413E42"/>
<path d="M327.906 89.0619C329.126 89.0619 330.116 88.1338 330.116 86.989C330.116 85.8441 329.126 84.916 327.906 84.916C326.686 84.916 325.696 85.8441 325.696 86.989C325.696 88.1338 326.686 89.0619 327.906 89.0619Z" fill="#413E42"/>
<path d="M320.362 89.0619C321.583 89.0619 322.572 88.1338 322.572 86.989C322.572 85.8441 321.583 84.916 320.362 84.916C319.142 84.916 318.152 85.8441 318.152 86.989C318.152 88.1338 319.142 89.0619 320.362 89.0619Z" fill="#413E42"/>
<path d="M316.629 101.213C318.943 101.213 320.82 99.4533 320.82 97.282C320.82 95.1108 318.943 93.3506 316.629 93.3506C314.314 93.3506 312.438 95.1108 312.438 97.282C312.438 99.4533 314.314 101.213 316.629 101.213Z" fill="#FED797"/>
<path d="M349.014 58.7538C349.014 58.7538 346.194 56.0376 344.975 55.6087C336.669 52.678 327.83 52.3921 318.686 54.1076C315.028 54.8224 312.438 57.7531 312.438 61.2557V66.7597C312.438 68.4038 313.809 69.6904 315.562 69.6904H355.338V55.6087L352.367 58.7538C351.452 59.6831 349.928 59.6831 349.014 58.7538Z" fill="#413E42"/>
<path d="M352.52 236.312C355.491 212.295 355.415 182.773 352.139 148.891C351.834 145.675 348.786 143.244 345.28 143.53C341.851 143.816 339.261 146.675 339.565 149.963C342.766 183.631 342.842 212.724 339.794 236.312H352.52Z" fill="#354649"/>
<path d="M339.641 254.397L326.154 250.966C335.222 220.014 337.05 193.995 337.203 149.606C337.203 146.032 340.327 143.101 344.213 143.101C348.1 143.101 351.224 146.032 351.224 149.677C350.995 195.139 349.09 222.016 339.641 254.397Z" fill="#42575C"/>
<path d="M337.202 247.964L341.622 248.964L341.012 251.395L336.593 250.394C335.907 250.251 335.45 249.536 335.602 248.893C335.755 248.178 336.44 247.749 337.202 247.964Z" fill="#3A4C51"/>
<path d="M336.973 249.822C337.352 249.822 337.659 249.534 337.659 249.179C337.659 248.824 337.352 248.536 336.973 248.536C336.595 248.536 336.288 248.824 336.288 249.179C336.288 249.534 336.595 249.822 336.973 249.822Z" fill="#354649"/>
<path d="M345.965 342.89L346.575 355.256H339.031L337.964 353.112L335.45 355.256H304.436V350.11C304.436 348.18 306.112 346.607 308.17 346.607H311.142C311.827 346.607 312.513 346.536 313.199 346.393L329.811 342.819H345.965V342.89Z" fill="#2D3D3F"/>
<path d="M329.811 342.89L346.194 346.822L345.966 342.89H329.811Z" fill="#29393A"/>
<path d="M396.639 55.0368C395.42 49.3898 353.739 55.6086 351.91 56.109C350.005 56.5379 336.136 56.3949 336.136 56.3949C336.136 56.3949 322.344 54.8224 320.515 54.1075C318.686 53.3927 278.224 42.0273 276.243 47.4598C274.261 52.8924 276.243 58.2534 278.376 60.9697C280.662 63.8289 290.492 69.19 301.922 72.8355C313.352 76.481 334.46 78.4825 334.46 78.4825C334.46 78.4825 355.72 79.1258 367.531 76.9814C379.342 74.837 389.858 70.6911 392.525 68.1893C395.116 65.7589 397.859 60.6838 396.639 55.0368Z" fill="#2D3C3F"/>
<path d="M342.536 36.0231L335.678 40.3119L330.039 35.2368C326.991 32.0917 323.41 32.5205 322.115 35.8086L308.322 64.8298L334.002 66.3309L359.681 67.832L350.385 37.4527C349.47 34.0931 346.27 33.5928 342.536 36.0231Z" fill="#354649"/>
<path d="M276.167 47.4599C276.167 47.3884 276.243 47.3884 276.243 47.3169C276.929 48.3176 277.614 49.2469 278.453 50.1761C279.824 51.6057 281.348 52.4635 283.253 53.3213C287.216 55.1083 291.407 56.9668 295.521 58.3249C304.818 61.3986 314.114 63.543 323.868 64.7582C327.678 65.2586 331.488 65.7589 335.374 65.7589C339.184 66.2593 342.994 66.2593 346.881 66.2593C356.787 66.1878 366.312 65.3301 375.913 63.4001C380.18 62.5423 384.676 61.2557 388.791 59.969C390.772 59.3972 392.372 58.7538 393.973 57.4672C394.887 56.6809 395.801 55.8231 396.563 54.9653C396.563 55.0368 396.563 55.0368 396.64 55.1083C397.859 60.7553 395.116 65.8304 392.525 68.2608C389.858 70.7626 379.342 74.9085 367.531 77.0529C355.72 79.1973 334.46 78.554 334.46 78.554C334.46 78.554 313.276 76.5525 301.922 72.907C290.492 69.2615 280.662 63.9004 278.376 61.0412C276.167 58.2535 274.185 52.8924 276.167 47.4599Z" fill="#2D3C3F"/>
<path d="M396.867 59.1114C396.867 59.1114 396.867 59.04 396.867 59.1114C396.867 58.897 396.867 58.8255 396.867 58.6825V58.6111C396.867 58.4681 396.867 58.3251 396.867 58.2537V58.1822C396.867 58.0392 396.867 57.8963 396.867 57.8248V57.7533C396.867 57.6818 396.867 57.6818 396.867 57.6103L388.485 65.9736L376.065 65.6877L365.625 72.2639L353.585 68.5469L342.232 73.2646L331.106 68.1895L314.495 70.7628L300.093 62.471L290.949 64.3295L285.157 57.2529L276.852 58.5396C277.004 58.897 277.233 59.2544 277.461 59.6118L284.624 58.4681L290.491 65.5447L299.94 63.6147L314.342 71.835L331.03 69.2617L342.308 74.4083L353.738 69.6906L365.93 73.4076L376.522 66.6884L389.095 66.9743L396.867 59.1829C396.867 59.1829 396.867 59.1829 396.867 59.1114Z" fill="#58595B"/>
<path d="M285.081 57.1814L290.873 64.2581L300.017 62.3996L314.418 70.6913L331.03 68.118L342.155 73.1931L353.509 68.4754L365.549 72.1924L375.988 65.6162L388.409 65.9021L396.791 57.5388C396.791 56.7526 396.715 55.9663 396.563 55.18C396.182 55.5374 395.648 56.0378 395.191 56.3952C395.039 56.5381 394.81 56.6811 394.658 56.824C394.429 57.0385 394.124 57.2529 393.896 57.4674C392.295 58.754 390.695 59.3974 388.714 59.9692C384.523 61.1844 380.103 62.5425 375.836 63.4003C366.235 65.3303 356.71 66.188 346.804 66.2595C342.917 66.2595 339.107 66.2595 335.297 65.7591C331.487 65.7591 327.677 65.2588 323.791 64.7584C314.037 63.4718 304.665 61.3988 295.445 58.3251C291.33 56.967 287.063 55.037 283.176 53.3215C281.271 52.4637 279.747 51.6774 278.376 50.1763C278.147 49.9619 277.918 49.7475 277.766 49.4615C277.614 49.3186 277.385 49.1041 277.233 48.9612C276.852 48.6038 276.394 48.0319 276.09 47.603C274.642 51.6774 275.404 55.6804 276.775 58.5396L285.081 57.1814Z" fill="#A7A9AC"/>
<path d="M396.867 59.2544L389.095 67.0458L376.522 66.7598L365.93 73.479L353.738 69.762L342.308 74.4798L331.03 69.3331L314.342 71.9064L299.94 63.6862L290.491 65.6161L284.624 58.5396L277.461 59.6832C277.385 59.5403 277.309 59.3258 277.156 59.1829C277.461 59.7547 277.842 60.3266 278.223 60.8269C281.728 63.8291 291.025 68.4754 301.54 71.9064C312.742 75.552 331.335 77.4105 334.611 77.6964C337.888 77.8394 356.633 78.2682 368.216 76.1238C379.112 74.0509 388.942 70.6198 392.829 68.0465C394.657 66.1165 396.486 62.9714 396.867 59.2544Z" fill="#808285"/>
<path d="M276.47 46.7451C277.08 47.6744 277.766 48.5321 278.528 49.3184C279.899 50.748 281.423 51.6058 283.328 52.4636C287.291 54.2506 291.482 56.1091 295.597 57.4672C304.893 60.5409 314.19 62.6853 323.943 63.9005C327.753 64.4009 331.563 64.9012 335.449 64.9012C339.259 65.4016 343.07 65.4016 346.956 65.4016C356.862 65.3301 366.387 64.4723 375.988 62.5424C380.255 61.6846 384.751 60.3979 388.866 59.1113C390.847 58.5394 392.447 57.8961 394.048 56.6095C394.886 55.8947 395.724 55.3228 396.486 54.465C396.562 54.608 396.562 54.9654 396.638 55.1798C395.8 56.1091 394.962 56.6095 393.971 57.3958C392.371 58.6824 390.771 59.3257 388.79 59.8976C384.599 61.1128 380.179 62.4709 375.912 63.3287C366.311 65.2586 356.786 66.1164 346.88 66.1879C342.993 66.1879 339.183 66.1879 335.373 65.6875C331.563 65.6875 327.753 65.1872 323.867 64.6868C314.113 63.4001 304.741 61.3272 295.52 58.2535C291.406 56.8954 287.138 54.9654 283.252 53.2499C281.347 52.3921 279.823 51.6058 278.452 50.1047C277.613 49.2469 276.928 48.2462 276.242 47.2455C276.318 47.1025 276.394 46.9596 276.47 46.7451Z" fill="#2D3C3F"/>
<path d="M367.53 260.401C366.768 260.401 366.235 260.973 366.235 261.616V262.76L342.841 261.616V258.042C342.841 256.899 341.851 256.041 340.708 256.041C339.488 256.041 338.574 256.97 338.574 258.042V261.402L333.392 261.116V258.042C333.392 256.899 332.402 256.041 331.259 256.041C330.039 256.041 329.125 256.97 329.125 258.042V260.973L323.943 260.687V258.042C323.943 256.899 322.953 256.041 321.81 256.041C320.667 256.041 319.676 256.97 319.676 258.042V260.473L299.331 259.472C290.339 258.829 283.176 255.183 277.08 249.75C273.118 253.968 271.822 258.328 271.822 263.904C271.822 269.479 273.118 273.839 277.08 278.057C283.176 272.624 290.339 268.979 299.331 268.335L303.903 268.121C302.683 269.336 301.921 270.98 301.921 272.767C301.921 276.484 305.122 279.486 309.084 279.486H352.214C356.176 279.486 359.377 276.484 359.377 272.767C359.377 269.05 356.176 266.048 352.214 266.048H345.584L366.235 265.047V266.191C366.235 266.906 366.844 267.406 367.53 267.406C368.292 267.406 368.826 266.834 368.826 266.191V261.545C368.902 260.973 368.292 260.401 367.53 260.401ZM356.1 272.767C356.1 274.769 354.347 276.413 352.214 276.413H308.856C306.722 276.413 304.97 274.769 304.97 272.767C304.97 270.766 306.722 269.122 308.856 269.122H319.524V269.765C319.524 270.909 320.514 271.767 321.657 271.767C322.8 271.767 323.791 270.837 323.791 269.765V269.122H328.973V269.765C328.973 270.909 329.963 271.767 331.106 271.767C332.325 271.767 333.24 270.837 333.24 269.765V269.122H338.422V269.765C338.422 270.909 339.412 271.767 340.555 271.767C341.774 271.767 342.689 270.837 342.689 269.765V269.122H352.214C354.347 269.122 356.1 270.766 356.1 272.767Z" fill="#ECE97B"/>
<path d="M314.418 102.071L313.809 105.216C313.58 106.432 314.571 107.647 315.942 107.647H321.581C323.715 113.508 327.677 115.438 332.859 114.723C329.506 110.077 327.068 105.574 326.382 101.142H315.714C315.028 101.071 314.495 101.499 314.418 102.071Z" fill="#413E42"/>
<path d="M326.001 254.182L337.203 257.256C337.889 257.47 338.346 257.828 338.27 258.042L334.536 269.908C334.46 270.194 333.85 270.265 333.164 270.051L321.963 266.977C321.277 266.763 320.82 266.406 320.896 266.191L324.63 254.325C324.706 254.039 325.316 253.968 326.001 254.182Z" fill="#EFC383"/>
<path d="M323.715 253.539L334.916 256.613C335.602 256.827 336.059 257.042 336.059 257.256L333.926 264.118C333.849 264.261 333.316 264.261 332.63 264.047L321.429 260.973C320.743 260.759 320.286 260.544 320.286 260.33L322.419 253.468C322.495 253.325 323.029 253.396 323.715 253.539Z" fill="#EFC383"/>
<path d="M519.398 362.69C559.673 362.69 592.322 359.394 592.322 355.328C592.322 351.262 559.673 347.965 519.398 347.965C479.123 347.965 446.474 351.262 446.474 355.328C446.474 359.394 479.123 362.69 519.398 362.69Z" fill="#AAB1B5"/>
<path d="M522.141 96.71H518.788L516.579 106.002L523.056 102.071L522.141 96.71Z" fill="#C64241"/>
<path d="M526.637 96.71H522.141L520.007 98.5685L523.055 102.071H526.637V96.71Z" fill="#EB4245"/>
<path d="M500.958 203.217L514.978 342.89H533.038L537.839 203.217H500.958Z" fill="#3A4C51"/>
<path d="M528.923 203.217H526.256V342.89H528.923V203.217Z" fill="#506469"/>
<path opacity="0.6" d="M537.839 203.217H500.958L537.458 214.868L537.839 203.217Z" fill="#354649"/>
<path d="M541.725 92.707H528.39V100.141H541.725V92.707Z" fill="#FED797"/>
<path d="M543.401 96.71H526.637V102H543.401V96.71Z" fill="white"/>
<path d="M533.876 100.141C510.482 100.141 499.052 117.94 499.052 139.813V197.569V203.216H539.667L541.572 201.072C543.553 198.856 544.696 195.997 544.696 193.066V100.141H533.876Z" fill="#3A4C51"/>
<path d="M513.423 221.399L523.363 224.146L524.397 220.855L514.456 218.108L513.423 221.399Z" fill="#E2B375"/>
<path d="M502.024 36.5947H541.725V92.7071H521.227C510.635 92.7071 502.024 84.6298 502.024 74.694V36.5947Z" fill="#FED797"/>
<path d="M541.649 61.8278C545.521 61.8278 548.659 58.8835 548.659 55.2515C548.659 51.6196 545.521 48.6753 541.649 48.6753C537.777 48.6753 534.639 51.6196 534.639 55.2515C534.639 58.8835 537.777 61.8278 541.649 61.8278Z" fill="#FED797"/>
<path d="M541.649 58.3251C543.458 58.3251 544.925 56.949 544.925 55.2514C544.925 53.5539 543.458 52.1777 541.649 52.1777C539.839 52.1777 538.372 53.5539 538.372 55.2514C538.372 56.949 539.839 58.3251 541.649 58.3251Z" fill="#EFC383"/>
<path d="M530.142 47.4598H541.725V36.5947H521.303V39.168C521.303 43.7428 525.266 47.4598 530.142 47.4598Z" fill="#6D6E71"/>
<path d="M522.446 50.1762H513.074C512.236 50.1762 511.626 49.5329 511.626 48.8181C511.626 48.0318 512.312 47.46 513.074 47.46H522.446C523.285 47.46 523.894 48.1033 523.894 48.8181C523.894 49.6044 523.209 50.1762 522.446 50.1762Z" fill="#413E42"/>
<path d="M508.12 50.1762H498.748C497.909 50.1762 497.3 49.5329 497.3 48.8181C497.3 48.0318 497.986 47.46 498.748 47.46H508.12C508.958 47.46 509.568 48.1033 509.568 48.8181C509.568 49.6044 508.882 50.1762 508.12 50.1762Z" fill="#413E42"/>
<path d="M514.216 55.9662C515.437 55.9662 516.426 55.0381 516.426 53.8933C516.426 52.7484 515.437 51.8203 514.216 51.8203C512.996 51.8203 512.006 52.7484 512.006 53.8933C512.006 55.0381 512.996 55.9662 514.216 55.9662Z" fill="#413E42"/>
<path d="M506.749 55.9662C507.969 55.9662 508.959 55.0381 508.959 53.8933C508.959 52.7484 507.969 51.8203 506.749 51.8203C505.528 51.8203 504.539 52.7484 504.539 53.8933C504.539 55.0381 505.528 55.9662 506.749 55.9662Z" fill="#413E42"/>
<path d="M502.939 68.1178C505.253 68.1178 507.13 66.3576 507.13 64.1863C507.13 62.015 505.253 60.2549 502.939 60.2549C500.624 60.2549 498.748 62.015 498.748 64.1863C498.748 66.3576 500.624 68.1178 502.939 68.1178Z" fill="#FED797"/>
<path d="M535.324 25.6582C535.324 25.6582 532.504 22.9419 531.285 22.513C522.979 19.5823 514.14 19.2964 504.996 21.0119C501.338 21.7267 498.748 24.6574 498.748 28.16V33.664C498.748 35.3081 500.119 36.5947 501.872 36.5947H541.648V22.513L538.677 25.6582C537.762 26.5874 536.238 26.5874 535.324 25.6582Z" fill="#413E42"/>
<path d="M538.906 203.217C541.877 179.199 541.801 149.677 538.525 115.796C538.22 112.579 535.172 110.149 531.667 110.434C528.238 110.72 525.647 113.58 525.952 116.868C529.152 150.535 529.228 179.628 526.18 203.217H538.906Z" fill="#354649"/>
<path d="M525.951 221.301L512.464 217.87C521.532 186.919 523.361 160.9 523.513 116.511C523.513 112.937 526.637 110.006 530.523 110.006C534.41 110.006 537.534 112.937 537.534 116.582C537.382 162.044 535.4 188.921 525.951 221.301Z" fill="#42575C"/>
<path d="M523.513 214.797L527.932 215.797L527.323 218.228L522.903 217.227C522.217 217.084 521.76 216.369 521.913 215.726C522.065 215.083 522.827 214.654 523.513 214.797Z" fill="#3A4C51"/>
<path d="M523.361 216.727C523.739 216.727 524.046 216.439 524.046 216.083C524.046 215.728 523.739 215.44 523.361 215.44C522.982 215.44 522.675 215.728 522.675 216.083C522.675 216.439 522.982 216.727 523.361 216.727Z" fill="#354649"/>
<path d="M532.276 342.89L532.886 355.256H525.342L524.275 353.112L521.761 355.256H490.747V350.109C490.747 348.179 492.423 346.607 494.481 346.607H497.453C498.139 346.607 498.824 346.535 499.51 346.392L516.122 342.818H532.276V342.89Z" fill="#2D3D3F"/>
<path d="M516.122 342.89L532.505 346.822L532.276 342.89H516.122Z" fill="#29393A"/>
<path d="M583.026 21.9411C581.807 16.2941 540.125 22.5129 538.296 23.0133C536.391 23.4422 522.523 23.2992 522.523 23.2992C522.523 23.2992 508.731 21.7267 506.902 21.0119C505.073 20.2971 464.611 8.9316 462.629 14.3641C460.648 19.7967 462.629 25.1577 464.763 27.874C467.049 30.7332 476.879 36.0943 488.309 39.7398C499.739 43.3853 520.847 45.3868 520.847 45.3868C520.847 45.3868 542.106 46.0301 553.918 43.8857C565.729 41.7413 576.244 37.5954 578.911 35.0936C581.502 32.6632 584.169 27.5881 583.026 21.9411Z" fill="#2D3C3F"/>
<path d="M528.923 2.92739L522.065 7.21624L516.426 2.14111C513.378 -1.00405 509.797 -0.575163 508.501 2.71295L494.709 31.7342L520.389 33.2353L546.068 34.7364L536.772 4.35701C535.781 0.997406 532.657 0.49704 528.923 2.92739Z" fill="#354649"/>
<path d="M462.553 14.3641C462.553 14.2927 462.629 14.2927 462.629 14.2212C463.315 15.2219 464.001 16.1512 464.839 17.0804C466.21 18.51 467.734 19.3678 469.639 20.2256C473.602 22.0126 477.793 23.8711 481.908 25.2292C491.204 28.3029 500.501 30.4473 510.254 31.6625C514.064 32.1629 517.874 32.6632 521.761 32.6632C525.571 33.1636 529.381 33.1636 533.267 33.1636C543.173 33.0921 552.698 32.2343 562.299 30.3044C566.566 29.4466 571.062 28.1599 575.177 26.8733C577.158 26.3014 578.758 25.6581 580.359 24.3714C581.273 23.5852 582.187 22.7274 582.949 21.8696C582.949 21.9411 582.95 21.9411 583.026 22.0126C584.245 27.6596 581.502 32.7347 578.911 35.1651C576.244 37.6669 565.728 41.8128 553.917 43.9572C542.106 46.1016 520.846 45.4583 520.846 45.4583C520.846 45.4583 499.662 43.4568 488.308 39.8113C476.878 36.1658 467.049 30.8047 464.763 27.9455C462.477 25.1577 460.495 19.7967 462.553 14.3641Z" fill="#2D3C3F"/>
<path d="M583.255 26.0157C583.255 26.0157 583.255 25.9442 583.255 26.0157C583.255 25.8013 583.255 25.7298 583.255 25.5868V25.5154C583.255 25.3724 583.255 25.2294 583.255 25.158V25.0865C583.255 24.9435 583.255 24.8005 583.255 24.7291V24.6576C583.255 24.5861 583.255 24.5861 583.255 24.5146L574.873 32.8779L562.452 32.5919L552.012 39.1682L539.973 35.4512L528.619 40.1689L517.494 35.0938L500.882 37.6671L486.48 29.3753L477.336 31.2338L471.545 24.1572L463.239 25.4439C463.391 25.8013 463.62 26.1587 463.848 26.5161L471.011 25.3724L476.879 32.449L486.328 30.519L500.729 38.7393L517.417 36.166L528.695 41.3126L540.125 36.5949L552.317 40.3119L562.909 33.5927L575.482 33.8786L583.255 26.0872C583.178 26.0872 583.255 26.0157 583.255 26.0157Z" fill="#58595B"/>
<path d="M471.468 24.0858L477.259 31.1624L486.403 29.3038L500.805 37.5956L517.417 35.0223L528.542 40.0975L539.896 35.3797L551.936 39.0967L562.375 32.5205L574.796 32.8064L583.178 24.4432C583.178 23.6569 583.102 22.8706 582.949 22.0843C582.568 22.4417 582.035 22.9421 581.578 23.2995C581.425 23.4424 581.197 23.5854 581.044 23.7283C580.816 23.9428 580.511 24.1572 580.282 24.3717C578.682 25.6583 577.082 26.3017 575.101 26.8735C570.91 28.0887 566.49 29.4468 562.223 30.3046C552.622 32.2346 543.096 33.0924 533.19 33.1638C529.304 33.1638 525.494 33.1638 521.684 32.6635C517.874 32.6635 514.064 32.1631 510.178 31.6627C500.424 30.3761 491.052 28.3031 481.831 25.2295C477.716 23.8713 473.449 21.9413 469.563 20.2258C467.658 19.368 466.134 18.5817 464.762 17.0806C464.534 16.8662 464.305 16.6518 464.153 16.3658C464 16.2229 463.772 16.0084 463.619 15.8655C463.238 15.5081 462.781 14.9362 462.476 14.5073C461.029 18.5817 461.791 22.5847 463.162 25.4439L471.468 24.0858Z" fill="#A7A9AC"/>
<path d="M583.178 26.1589L575.406 33.9503L562.833 33.6643L552.241 40.3835L540.049 36.6665L528.619 41.3843L517.341 36.2376L500.653 38.811L486.251 30.5192L476.802 32.4492L470.935 25.3726L463.772 26.5163C463.696 26.3733 463.62 26.1589 463.467 26.0159C463.772 26.5877 464.153 27.1596 464.534 27.66C468.039 30.6621 477.336 35.3084 487.851 38.7395C499.053 42.385 517.646 44.2435 520.923 44.5294C524.199 44.6724 542.944 45.1013 554.527 42.9568C565.424 40.8839 575.253 37.4528 579.14 34.8795C580.969 33.021 582.797 29.8759 583.178 26.1589Z" fill="#808285"/>
<path d="M462.781 13.6494C463.391 14.5787 464.077 15.4364 464.839 16.2227C466.21 17.6523 467.734 18.5101 469.639 19.3679C473.602 21.1549 477.793 23.0134 481.908 24.3715C491.204 27.4452 500.501 29.5896 510.254 30.8048C514.064 31.3052 517.874 31.8055 521.761 31.8055C525.571 32.3059 529.381 32.3059 533.267 32.3059C543.173 32.2344 552.698 31.3767 562.299 29.4467C566.566 28.5889 571.062 27.3023 575.177 26.0156C577.158 25.4438 578.758 24.8004 580.359 23.5138C581.197 22.799 582.035 22.2271 582.797 21.3694C582.873 21.5123 582.873 21.8697 582.949 22.0842C582.111 23.0134 581.273 23.5138 580.282 24.3001C578.682 25.5867 577.082 26.23 575.101 26.8019C570.91 28.0171 566.49 29.3752 562.223 30.233C552.622 32.163 543.097 33.0207 533.191 33.0922C529.304 33.0922 525.494 33.0922 521.684 32.5918C517.874 32.5918 514.064 32.0915 510.178 31.5911C500.424 30.3045 491.052 28.2315 481.831 25.1578C477.717 23.7997 473.449 21.8697 469.563 20.1542C467.658 19.2964 466.134 18.5101 464.763 17.009C463.924 16.1513 463.239 15.1505 462.553 14.1498C462.629 14.0068 462.705 13.8639 462.781 13.6494Z" fill="#2D3C3F"/>
<path d="M500.805 68.9044L500.195 72.0495C499.967 73.2647 500.957 74.4798 502.329 74.4798H507.968C510.102 80.3412 514.064 82.2712 519.246 81.5564C515.893 76.9102 513.454 72.4069 512.769 67.9751H502.1C501.415 67.9751 500.881 68.404 500.805 68.9044Z" fill="#413E42"/>
<path d="M595.904 221.516H596.285V218.942H583.635V221.516C578.225 222.445 573.348 224.589 569.157 227.592C564.509 230.951 558.794 232.667 553.003 232.667H543.249C542.563 232.667 541.877 232.738 541.268 232.738C539.591 229.95 536.467 228.092 532.81 228.092H493.033C487.699 228.092 483.355 232.166 483.355 237.17V243.46H478.86C477.336 243.46 475.812 243.103 474.516 242.388L467.734 238.814C466.439 238.099 464.915 237.742 463.391 237.742H453.104V235.169H440.455V237.742H439.083C434.13 237.742 430.167 241.459 430.167 246.105V260.044C430.167 264.69 434.13 268.407 439.083 268.407C447.16 268.407 458.514 268.407 463.315 268.407C464.839 268.407 466.363 268.05 467.658 267.335L476.497 262.689C476.497 262.689 507.892 262.689 518.865 262.76C521.075 262.76 523.056 263.832 524.199 265.548C528.238 271.409 535.248 275.269 543.173 275.269H552.926C558.794 275.269 564.509 276.985 569.081 280.344C574.872 284.562 582.111 286.992 589.96 286.992C604.59 286.992 616.402 275.913 616.402 262.188V245.676C616.554 233.882 607.715 224.018 595.904 221.516ZM525.189 241.03C523.97 242.531 522.141 243.389 520.084 243.389H487.927V237.099C487.927 234.454 490.213 232.381 492.957 232.381H532.81C534.181 232.381 535.4 232.881 536.315 233.667C531.819 235.026 528.009 237.67 525.189 241.03Z" fill="#2D3C3F"/>
<path d="M512.311 221.087L523.513 224.16C524.199 224.375 524.656 224.732 524.58 224.947L520.846 236.812C520.77 237.098 520.16 237.17 519.474 236.955L508.273 233.882C507.587 233.667 507.13 233.31 507.206 233.095L510.94 221.23C511.092 220.944 511.702 220.872 512.311 221.087Z" fill="#EFC383"/>
<path d="M510.025 220.444L521.227 223.517C521.912 223.732 522.37 223.946 522.37 224.161L520.236 231.023C520.16 231.166 519.626 231.166 518.941 230.951L507.739 227.878C507.053 227.663 506.596 227.449 506.596 227.234L508.73 220.372C508.806 220.229 509.416 220.229 510.025 220.444Z" fill="#EFC383"/>
</svg>
